<svg xmlns="http://www.w3.org/2000/svg" viewBox="0 0 226.56 154.75"><defs><style>.cls-1{fill:#ec642b;}.cls-2{fill:#afac95;}</style></defs><g id="Calque_2" data-name="Calque 2"><g id="Calque_1-2" data-name="Calque 1"><polygon class="cls-1" points="226.56 154.75 165.7 89.52 134.22 89.52 195.13 154.75 226.56 154.75"/><polygon class="cls-2" points="36.52 154.75 97.38 89.52 128.86 89.52 67.95 154.75 36.52 154.75"/><polygon class="cls-2" points="0 154.75 60.86 89.52 92.34 89.52 31.43 154.75 0 154.75"/><path class="cls-1" d="M149.67,110.89l0,0-9.1-9.73h0L129.63,89.52H98.15l31.37,33.6a58.34,58.34,0,0,1-17.63,3.13c-15,0-27.85-5-38.26-14.86S58,89.46,58,75.38A48.8,48.8,0,0,1,73.3,39.24C83.44,29.33,96,24.31,110.44,24.31c15.28,0,28.25,4.94,38.5,14.7s15.42,21.93,15.42,36.22a53,53,0,0,1-.49,7.07H189c.26-2.75.42-5.55.42-8.42,0-20.11-7.76-37.66-23.06-52.11S132.65,0,111.5,0C90,0,71.38,7.35,56.11,21.87s-23,32.26-23,52.66c0,21.1,7.66,39.29,22.78,54.13S89.55,151,111.17,151c11.49,0,23.74-2.87,36.39-8.54l11.5,12.32h31.42L179.9,143.27Z"/></g></g></svg>