<svg xmlns="http://www.w3.org/2000/svg" viewBox="0 0 643.28 116.14"><defs><style>.cls-1{fill:#afac95;}</style></defs><g id="Calque_2" data-name="Calque 2"><g id="Calque_1-2" data-name="Calque 1"><path d="M231.78,80.54a32.43,32.43,0,0,0,9.89-24c0-8.77-3.38-16.41-10-22.71a35.1,35.1,0,0,0-48,.05,30.7,30.7,0,0,0-10,22.94,31.92,31.92,0,0,0,9.92,23.58,33.3,33.3,0,0,0,24.1,9.73,39,39,0,0,0,15.86-3.73l5,5.37h13.69ZM215.57,78a25.48,25.48,0,0,1-7.68,1.36,23.41,23.41,0,0,1-16.67-6.47,20.88,20.88,0,0,1-6.8-15.69,21.26,21.26,0,0,1,6.65-15.74,22.4,22.4,0,0,1,16.19-6.51A23.47,23.47,0,0,1,224,41.35a21,21,0,0,1,6.72,15.77,21.76,21.76,0,0,1-6.42,15.56l-8.71-9.33H201.9Z"/><polygon points="298.36 44.62 297.23 44.62 297.23 44.6 298.36 44.62"/><path d="M297.64,42.78h-6.73a1.74,1.74,0,0,0-1.83,1.84V66.33a10.78,10.78,0,0,1-4.8,9.46,14.52,14.52,0,0,1-4.93,2.13,24.66,24.66,0,0,1-11.46,0A14.56,14.56,0,0,1,263,75.78,11.42,11.42,0,0,1,259.49,72a11.08,11.08,0,0,1-1.32-5.68V44.62a1.75,1.75,0,0,0-.54-1.31,1.84,1.84,0,0,0-1.3-.53H249.6a1.73,1.73,0,0,0-1.83,1.84V66.33a22.5,22.5,0,0,0,1.87,9.26,20.79,20.79,0,0,0,5.29,7.18,24.75,24.75,0,0,0,8.21,4.61,34.57,34.57,0,0,0,20.95,0,24.45,24.45,0,0,0,8.16-4.61,21.08,21.08,0,0,0,5.33-7.16,22.27,22.27,0,0,0,1.9-9.27V44.62A1.74,1.74,0,0,0,297.64,42.78Zm-.41,1.84v0l1.13,0Z"/><path d="M355.79,85.77,334.65,43.62a1.54,1.54,0,0,0-1.41-.84h-8.85a1.74,1.74,0,0,0-1.22.56l-.13.13-21.15,42.3a1.61,1.61,0,0,0,0,1.48,1.56,1.56,0,0,0,1.42.87h8.08a1.62,1.62,0,0,0,1.42-.93l3.35-6.69h25.35l3.3,6.61a1.54,1.54,0,0,0,1.47,1h8.09a1.58,1.58,0,0,0,1.34-.77A1.59,1.59,0,0,0,355.79,85.77ZM336.27,70.11H321.34l7.49-14.9Z"/><path d="M410.86,74.54a12.89,12.89,0,0,1-.26,2.12,10.56,10.56,0,0,1-1.15,3.08A14.52,14.52,0,0,1,406.92,83a16.37,16.37,0,0,1-4.4,3,28.36,28.36,0,0,1-6.6,2.17,46.52,46.52,0,0,1-9.33.81,77.77,77.77,0,0,1-9.5-.53c-2.8-.36-5.25-.78-7.3-1.23a50.32,50.32,0,0,1-5-1.34c-1.24-.42-2-.71-2.42-.89l-.17-.1a1.38,1.38,0,0,1-.68-1.17l-.88-9a1.46,1.46,0,0,1,1.42-1.64h.44l.3.2c.51.3,1.43.76,2.69,1.34a31.56,31.56,0,0,0,4.85,1.74,63.65,63.65,0,0,0,7.07,1.53,57,57,0,0,0,9.14.67,29.38,29.38,0,0,0,10.25-1.42c2.09-.81,3.15-1.81,3.15-2.93a1.29,1.29,0,0,0-.56-.83,7.36,7.36,0,0,0-2.6-1.19,28.83,28.83,0,0,0-5.05-.94,68.22,68.22,0,0,0-7.61-.35,57.68,57.68,0,0,1-9.79-.72,31.22,31.22,0,0,1-6.81-1.94,15.39,15.39,0,0,1-4.44-2.78,11.57,11.57,0,0,1-2.48-3.18,10.08,10.08,0,0,1-1-3.1,18.41,18.41,0,0,1-.19-2.28,11.38,11.38,0,0,1,2.6-7.63,17.28,17.28,0,0,1,6.41-4.58A33.19,33.19,0,0,1,377,42.46a61.37,61.37,0,0,1,16.67-.11c2.25.34,4.26.73,6,1.17a37.35,37.35,0,0,1,4.26,1.31c1,.37,1.62.64,2,.82a1.33,1.33,0,0,1,.95,1.32l.58,8.61a1.36,1.36,0,0,1-.2,1.1,1.42,1.42,0,0,1-1.21.57h-.51l-.26-.23a25.53,25.53,0,0,0-2.85-1.43A36.07,36.07,0,0,0,398,54a50.41,50.41,0,0,0-5.56-1.26,37.76,37.76,0,0,0-6.34-.52,54.2,54.2,0,0,0-8.77.57,21.87,21.87,0,0,0-5,1.37,4.3,4.3,0,0,0-2,1.44,2.75,2.75,0,0,0-.45,1.33c0,1.08,1.1,1.92,3.29,2.52a44.26,44.26,0,0,0,11,1.08c1.46,0,3.12,0,4.94.11a56.67,56.67,0,0,1,5.68.58,41,41,0,0,1,5.7,1.31A19.23,19.23,0,0,1,405.64,65a12.77,12.77,0,0,1,3.75,3.93A10.7,10.7,0,0,1,410.86,74.54Z"/><path d="M464.51,50.73v.19a1.28,1.28,0,0,1-1.31,1.31H443.5V86.57a1.41,1.41,0,0,1-1.43,1.49h-7.49a1.41,1.41,0,0,1-1.42-1.49V52.23H413.44a1.27,1.27,0,0,1-1.29-1.31v-.19l2.44-7a1.23,1.23,0,0,1,1.22-1h44.91a1.23,1.23,0,0,1,1.22,1Z"/><path d="M519.52,85.69,506.46,71.47a15.73,15.73,0,0,0,3.52-.94,13.7,13.7,0,0,0,4.59-2.92,13.56,13.56,0,0,0,4.13-9.83,14.66,14.66,0,0,0-1.13-5.6,16,16,0,0,0-3.05-4.79A14.68,14.68,0,0,0,509.93,44a13.68,13.68,0,0,0-5.83-1.25H470.93a1.43,1.43,0,0,0-1.48,1.48V86.52A1.43,1.43,0,0,0,470.93,88h7.44a1.43,1.43,0,0,0,1.48-1.47V71.65h13.32L507.85,87.6a1.46,1.46,0,0,0,1,.46h9.57a1.4,1.4,0,0,0,1.27-.81A1.37,1.37,0,0,0,519.52,85.69ZM504.1,61.25H479.85V53.18H504.1a3.09,3.09,0,0,1,1.44.35,5.74,5.74,0,0,1,1.43,1,5,5,0,0,1,1,1.46,4.5,4.5,0,0,1,.34,1.77,3.29,3.29,0,0,1-.33,1.53,3,3,0,0,1-.91,1.06,4.14,4.14,0,0,1-1.35.66A6.22,6.22,0,0,1,504.1,61.25Z"/><path d="M576.81,54.86A24.23,24.23,0,0,0,570,47.53a29.94,29.94,0,0,0-9.05-4.3,34.38,34.38,0,0,0-9.43-1.4,32.51,32.51,0,0,0-6,.58,35.65,35.65,0,0,0-6.23,1.77,31.27,31.27,0,0,0-5.91,3.06,24.24,24.24,0,0,0-5,4.49,20.77,20.77,0,0,0-3.53,6,21.13,21.13,0,0,0-1.32,7.63,18.85,18.85,0,0,0,1.3,7,22,22,0,0,0,3.45,5.85,25.05,25.05,0,0,0,5,4.63,33.46,33.46,0,0,0,5.89,3.34,34.91,34.91,0,0,0,6.26,2,28.89,28.89,0,0,0,6.08.7,35.35,35.35,0,0,0,11-1.68,27.4,27.4,0,0,0,8.88-4.8,22.41,22.41,0,0,0,6-7.49,21.55,21.55,0,0,0,2.15-9.64A19.94,19.94,0,0,0,576.81,54.86ZM551.49,78.6a21.86,21.86,0,0,1-6.92-1.06,19,19,0,0,1-5.61-2.9,13.91,13.91,0,0,1-3.71-4.23,10.12,10.12,0,0,1,0-10A14,14,0,0,1,539,56.19a18.71,18.71,0,0,1,5.61-2.89,23,23,0,0,1,13.86,0,19.24,19.24,0,0,1,5.64,2.89,13.8,13.8,0,0,1,3.74,4.21,10,10,0,0,1,1.33,5,10.16,10.16,0,0,1-1.33,5,13.75,13.75,0,0,1-3.74,4.23,19.25,19.25,0,0,1-5.64,2.9A21.94,21.94,0,0,1,551.49,78.6Z"/><path d="M643.28,44.49V86.28a1.67,1.67,0,0,1-1.72,1.78h-6.9a1.66,1.66,0,0,1-1.72-1.78V61.35L617.88,79.5a1.82,1.82,0,0,1-1.34.64h-3.6a1.83,1.83,0,0,1-1.33-.56L596.54,61.43V86.28a1.69,1.69,0,0,1-1.78,1.78h-6.85a1.68,1.68,0,0,1-1.77-1.78V44.49a1.67,1.67,0,0,1,1.77-1.77h5.84a1.78,1.78,0,0,1,1.28.55L614.74,67l19.58-23.68a1.84,1.84,0,0,1,1.35-.64h5.89A1.66,1.66,0,0,1,643.28,44.49Z"/><polygon points="170 116.12 124.34 67.17 100.72 67.17 146.42 116.12 170 116.12"/><polygon class="cls-1" points="27.4 116.12 73.07 67.17 96.69 67.17 50.99 116.12 27.4 116.12"/><polygon class="cls-1" points="0 116.12 45.67 67.17 69.29 67.17 23.58 116.12 0 116.12"/><path d="M112.3,83.22l0,0-6.83-7.3h0l-8.19-8.77H73.64L97.18,92.39A43.6,43.6,0,0,1,84,94.73c-11.25,0-20.9-3.75-28.71-11.15a36,36,0,0,1-11.7-27A36.59,36.59,0,0,1,55,29.44a38.56,38.56,0,0,1,27.87-11.2c11.46,0,21.2,3.72,28.89,11a36.16,36.16,0,0,1,11.57,27.18,40.34,40.34,0,0,1-.38,5.31h18.86c.2-2.06.32-4.16.32-6.32,0-15.09-5.82-28.26-17.3-39.1A58,58,0,0,0,83.69,0C67.56,0,53.58,5.51,42.11,16.4S24.82,40.6,24.81,55.91A55,55,0,0,0,41.9,96.53c11.32,11.11,25.28,16.75,41.5,16.75,8.63,0,17.82-2.15,27.32-6.4l8.62,9.25h23.58L135,107.52Z"/></g></g></svg>