<svg xmlns="http://www.w3.org/2000/svg" viewBox="0 0 626 277.51"><defs><style>.cls-1{fill:#fff;}.cls-2{fill:#afac95;}</style></defs><g id="Calque_2" data-name="Calque 2"><g id="Calque_1-2" data-name="Calque 1"><path class="cls-1" d="M77.6,262.54c8.75-8.58,13.19-19.33,13.19-32,0-11.68-4.51-21.87-13.4-30.25a44.88,44.88,0,0,0-31.85-12.64,45.17,45.17,0,0,0-32.16,12.7C4.51,208.8,0,219.08,0,230.93a42.57,42.57,0,0,0,13.23,31.43,44.32,44.32,0,0,0,32.12,12.95,51.81,51.81,0,0,0,21.13-5l6.67,7.16H91.4ZM56,259.14A33.94,33.94,0,0,1,45.77,261a31.24,31.24,0,0,1-22.22-8.63,27.83,27.83,0,0,1-9.06-20.9,28.34,28.34,0,0,1,8.87-21,29.87,29.87,0,0,1,21.57-8.67c8.87,0,16.4,2.87,22.35,8.54a28,28,0,0,1,9,21,29,29,0,0,1-8.56,20.72L56.06,239.63H37.79Z"/><polygon class="cls-1" points="166.33 214.67 164.83 214.67 164.83 214.65 166.33 214.67"/><path class="cls-1" d="M165.38,212.22h-9a2.32,2.32,0,0,0-2.44,2.45V243.6a14.33,14.33,0,0,1-6.4,12.61,19.27,19.27,0,0,1-6.57,2.84,32.84,32.84,0,0,1-15.27,0,19.23,19.23,0,0,1-6.58-2.85,15.49,15.49,0,0,1-4.62-5,14.84,14.84,0,0,1-1.75-7.58V214.67a2.33,2.33,0,0,0-.73-1.75,2.43,2.43,0,0,0-1.72-.7h-9a2.31,2.31,0,0,0-2.43,2.45V243.6a30,30,0,0,0,2.49,12.34,27.73,27.73,0,0,0,7,9.57,33,33,0,0,0,10.94,6.15,46.29,46.29,0,0,0,27.92,0,32.76,32.76,0,0,0,10.88-6.15,28.21,28.21,0,0,0,7.09-9.54,29.51,29.51,0,0,0,2.54-12.36V214.67A2.33,2.33,0,0,0,165.38,212.22Zm-.55,2.45v0l1.5,0Z"/><path class="cls-1" d="M242.87,269.51,214.7,213.34a2.08,2.08,0,0,0-1.88-1.12H201a2.3,2.3,0,0,0-1.62.75l-.17.16L171,269.51a2.2,2.2,0,0,0,0,2,2.09,2.09,0,0,0,1.9,1.16h10.78a2.18,2.18,0,0,0,1.89-1.23l4.46-8.92h33.78l4.4,8.81a2.07,2.07,0,0,0,2,1.34H241a2.17,2.17,0,0,0,1.9-3.13Zm-26-20.87H197l10-19.86Z"/><path class="cls-1" d="M316.26,254.54a17.59,17.59,0,0,1-.34,2.83,14.27,14.27,0,0,1-1.54,4.1,19.15,19.15,0,0,1-3.36,4.36,21.94,21.94,0,0,1-5.87,4,37.36,37.36,0,0,1-8.8,2.89,61.93,61.93,0,0,1-12.43,1.08,105,105,0,0,1-12.66-.7c-3.73-.49-7-1-9.73-1.64a66,66,0,0,1-6.61-1.79c-1.65-.56-2.7-.95-3.23-1.19l-.23-.12a1.86,1.86,0,0,1-.9-1.56l-1.17-12a2,2,0,0,1,1.89-2.19h.59l.39.27c.69.41,1.91,1,3.59,1.79a43.19,43.19,0,0,0,6.47,2.31,82.6,82.6,0,0,0,9.42,2.05,76.72,76.72,0,0,0,12.18.88c5.81,0,10.41-.63,13.66-1.89,2.78-1.08,4.19-2.41,4.19-3.91a1.76,1.76,0,0,0-.73-1.1,9.84,9.84,0,0,0-3.48-1.59,38.81,38.81,0,0,0-6.73-1.25,93.23,93.23,0,0,0-10.13-.46,76.41,76.41,0,0,1-13.05-1,41.19,41.19,0,0,1-9.08-2.59,20.68,20.68,0,0,1-5.92-3.7,15.86,15.86,0,0,1-3.31-4.24,13.15,13.15,0,0,1-1.36-4.13,22.86,22.86,0,0,1-.26-3,15.11,15.11,0,0,1,3.47-10.17,23,23,0,0,1,8.54-6.1,43.76,43.76,0,0,1,11.36-3,81.68,81.68,0,0,1,22.22-.16c3,.46,5.68,1,8,1.57A48.66,48.66,0,0,1,307,215c1.29.5,2.16.86,2.67,1.1a1.77,1.77,0,0,1,1.28,1.76l.77,11.47a1.8,1.8,0,0,1-.27,1.47,1.92,1.92,0,0,1-1.61.75h-.68l-.34-.3a34,34,0,0,0-3.81-1.91,45.24,45.24,0,0,0-5.83-2.1,65,65,0,0,0-7.41-1.69,50.81,50.81,0,0,0-8.45-.69,71.62,71.62,0,0,0-11.69.77,28.32,28.32,0,0,0-6.72,1.82,5.69,5.69,0,0,0-2.67,1.92,3.59,3.59,0,0,0-.61,1.77c0,1.43,1.48,2.56,4.39,3.36a59.05,59.05,0,0,0,14.72,1.44c1.94,0,4.15,0,6.58.15a73.93,73.93,0,0,1,7.56.77,56.3,56.3,0,0,1,7.61,1.74,25.43,25.43,0,0,1,6.85,3.22,17,17,0,0,1,5,5.23A14.3,14.3,0,0,1,316.26,254.54Z"/><path class="cls-1" d="M387.76,222.81v.26a1.7,1.7,0,0,1-1.74,1.74H359.76v45.77a1.88,1.88,0,0,1-1.91,2h-10a1.87,1.87,0,0,1-1.89-2V224.81H319.7a1.69,1.69,0,0,1-1.72-1.74v-.26l3.26-9.3a1.63,1.63,0,0,1,1.62-1.29h59.85a1.65,1.65,0,0,1,1.63,1.27Z"/><path class="cls-1" d="M461.07,269.41l-17.41-19a21.15,21.15,0,0,0,4.69-1.24,18.43,18.43,0,0,0,6.12-3.9,17.86,17.86,0,0,0,4-5.83,18.06,18.06,0,0,0,1.47-7.27,19.41,19.41,0,0,0-1.5-7.46,21.26,21.26,0,0,0-4.06-6.39,19.68,19.68,0,0,0-6.12-4.48,18.18,18.18,0,0,0-7.77-1.66h-44.2a1.89,1.89,0,0,0-2,2v56.33a1.89,1.89,0,0,0,2,2h9.92a1.89,1.89,0,0,0,2-2V250.69H426L445.51,272a2,2,0,0,0,1.38.61h12.75a1.87,1.87,0,0,0,1.7-1.08A1.8,1.8,0,0,0,461.07,269.41Zm-20.55-32.57H408.2V226.07h32.32a4.15,4.15,0,0,1,1.92.47,7.3,7.3,0,0,1,1.9,1.37,6.15,6.15,0,0,1,1.29,1.94,5.75,5.75,0,0,1,.47,2.36,4.33,4.33,0,0,1-.45,2,4.07,4.07,0,0,1-1.21,1.41,5.81,5.81,0,0,1-1.8.88A8.16,8.16,0,0,1,440.52,236.84Z"/><path class="cls-1" d="M537.42,228.31a32.65,32.65,0,0,0-9.12-9.77,39.69,39.69,0,0,0-12-5.72A45.83,45.83,0,0,0,503.68,211a44.36,44.36,0,0,0-7.94.77,48.29,48.29,0,0,0-8.29,2.36,41.54,41.54,0,0,0-7.88,4.09,31.66,31.66,0,0,0-6.72,6,27.51,27.51,0,0,0-4.7,8,28.17,28.17,0,0,0-1.76,10.17,25.11,25.11,0,0,0,1.73,9.4,29.05,29.05,0,0,0,4.6,7.8,34,34,0,0,0,6.66,6.16,44.74,44.74,0,0,0,7.86,4.45,46.67,46.67,0,0,0,8.34,2.72,37.87,37.87,0,0,0,8.1.93,46.62,46.62,0,0,0,14.71-2.24,36.7,36.7,0,0,0,11.85-6.39,30,30,0,0,0,8-10,28.72,28.72,0,0,0,2.87-12.85A26.64,26.64,0,0,0,537.42,228.31ZM503.68,260a29.07,29.07,0,0,1-9.23-1.41,25.48,25.48,0,0,1-7.47-3.86A18.35,18.35,0,0,1,482,249a13.47,13.47,0,0,1,0-13.35,18.75,18.75,0,0,1,5-5.6,24.77,24.77,0,0,1,7.47-3.85,30.54,30.54,0,0,1,18.47,0,25.64,25.64,0,0,1,7.52,3.85,18.73,18.73,0,0,1,5,5.6,13.47,13.47,0,0,1,0,13.35,18.39,18.39,0,0,1-5,5.64,25.9,25.9,0,0,1-7.52,3.86A29.09,29.09,0,0,1,503.68,260Z"/><path class="cls-1" d="M626,214.5v55.69a2.22,2.22,0,0,1-2.28,2.37h-9.2a2.22,2.22,0,0,1-2.3-2.37V237l-20.07,24.19a2.43,2.43,0,0,1-1.79.85h-4.79a2.44,2.44,0,0,1-1.78-.75l-20.08-24.18v33.11a2.25,2.25,0,0,1-2.37,2.37h-9.13a2.24,2.24,0,0,1-2.36-2.37V214.5a2.24,2.24,0,0,1,2.36-2.36H560a2.36,2.36,0,0,1,1.7.74L588,244.55,614.07,213a2.4,2.4,0,0,1,1.78-.86h7.87A2.21,2.21,0,0,1,626,214.5Z"/><polygon class="cls-1" points="426.28 154.75 365.42 89.52 333.94 89.52 394.85 154.75 426.28 154.75"/><polygon class="cls-2" points="236.24 154.75 297.1 89.52 328.58 89.52 267.67 154.75 236.24 154.75"/><polygon class="cls-2" points="199.72 154.75 260.58 89.52 292.06 89.52 231.15 154.75 199.72 154.75"/><path class="cls-1" d="M349.39,110.89l0,0-9.1-9.73h0L329.35,89.52H297.87l31.37,33.6a58.34,58.34,0,0,1-17.63,3.13c-15,0-27.85-5-38.26-14.86s-15.61-21.93-15.61-36A48.8,48.8,0,0,1,273,39.24c10.14-9.91,22.65-14.93,37.14-14.93,15.28,0,28.25,4.94,38.5,14.7s15.43,21.93,15.43,36.22a51.38,51.38,0,0,1-.5,7.07h25.13c.26-2.75.42-5.55.42-8.42,0-20.11-7.76-37.66-23.06-52.11S332.37,0,311.23,0c-21.49,0-40.13,7.35-55.4,21.87s-23,32.26-23,52.66c0,21.1,7.66,39.29,22.78,54.13S289.27,151,310.89,151c11.49,0,23.74-2.87,36.4-8.54l11.49,12.32h31.43l-10.59-11.48Z"/></g></g></svg>